
        <svg xmlns="http://www.w3.org/2000/svg" xmlns:xlink="http://www.w3.org/1999/xlink" version="1.1" width="3200" height="905.1438531897787" viewBox="0 0 3200 905.1438531897787">
			
			<g transform="scale(10) translate(10, 10)">
				<defs id="SvgjsDefs98647"><linearGradient id="SvgjsLinearGradient98652"><stop id="SvgjsStop98653" stop-color="#616161" offset="0"/><stop id="SvgjsStop98654" stop-color="#e6e7e8" offset="0.5"/><stop id="SvgjsStop98655" stop-color="#616161" offset="1"/></linearGradient><linearGradient id="SvgjsLinearGradient98656"><stop id="SvgjsStop98657" stop-color="#616161" offset="0"/><stop id="SvgjsStop98658" stop-color="#e6e7e8" offset="0.5"/><stop id="SvgjsStop98659" stop-color="#616161" offset="1"/></linearGradient></defs><g id="SvgjsG98648" featureKey="nameFeature-0" transform="matrix(1.5098441905732882,0,0,1.5098441905732882,-3.0196883811465765,-18.11813028687946)" fill="#000"><path d="M6.64 31.52 l0 8.48 l-4.64 0 l0 -28 l4.64 0 l0 14.52 l19.64 -14.52 l6.68 0 z M20.6 24.759999999999998 l13.92 15.24 l-6 0 l-11.44 -12.6 z M63.114000000000004 36 c4.68 0 8.36 -1.48 11.04 -4.36 l3.76 2.08 c-1.88 2.2 -4.04 3.8 -6.44 4.8 s-5.28 1.48 -8.6 1.48 c-4.68 0 -8.56 -1.16 -11.64 -3.52 c-3.52 -2.68 -5.28 -6.16 -5.28 -10.48 c0 -4.28 1.76 -7.76 5.36 -10.44 c3.12 -2.36 6.96 -3.56 11.56 -3.56 c6.64 0 11.68 2.28 15.24 6.88 l-4 1.4 c-2.68 -2.84 -6.4 -4.28 -11.24 -4.28 c-3.64 0 -6.64 0.96 -8.92 2.84 c-2.32 1.88 -3.44 4.24 -3.44 7.16 c0 2.96 1.12 5.4 3.4 7.24 s5.36 2.76 9.2 2.76 z M89.548 40 l5.52 -10.48 l19.4 0.04 l-7.16 -13.56 l-5.28 9.92 l-5.04 0 l7.4 -13.92 l5.8 0 l14.84 28 l-5.08 0 l-3.24 -6.28 l-18.84 0 l-3.24 6.28 l-5.08 0 z M136.462 40 l0 -28 l4.64 0 l0 23.84 l15.24 0 l0 4.16 l-19.88 0 z M195.896 25.560000000000002 c3.2 1.08 4.8 3.44 4.8 7.08 c0 4.92 -3.52 7.36 -10.6 7.36 l-22.32 0 l0 -4.2 l22.36 0.04 c3.88 0 5.8 -1.28 5.8 -3.84 c0 -2.72 -1.68 -4.12 -5.08 -4.12 l-18.44 0 l0 4.28 l-4.64 0 l0 -20.16 l22.64 0 c2.84 0 5.04 0.68 6.68 2.08 s2.44 3.24 2.44 5.56 c0 2.56 -1.2 4.56 -3.64 5.92 z M193.69599999999997 22.6 c0.88 -0.72 1.32 -1.64 1.32 -2.68 c0 -1.16 -0.4 -2.04 -1.16 -2.72 c-0.8 -0.68 -1.84 -1.04 -3.2 -1.04 l-18.24 0 l0 7.56 l18.08 0 c1.28 0 2.36 -0.36 3.2 -1.12 z"/></g><g id="SvgjsG98649" featureKey="sloganFeature-0" transform="matrix(0.5792099307368047,0,0,0.5792099307368047,2.4207900692631954,58.69850267670929)" fill="#000"><path d="M1 6.02 l2.32 0 l0 14 l-2.32 0 l0 -14 z M8.506 20 l0 -14 l2.32 0 l0 14 l-2.32 0 z M22.086 6 l2.32 0 l0 14 l-2.9 0 l-8.86 -9.52 l0 -3.06 l9.44 10.06 l0 -11.48 z M29.592000000000002 20 l0 -14 l2.32 0 l0 14 l-2.32 0 z M43.172000000000004 6 l2.32 0 l0 14 l-2.9 0 l-8.86 -9.52 l0 -3.06 l9.44 10.06 l0 -11.48 z M63.418000000000006 8.04 c1.24 1.32 1.88 2.96 1.88 4.94 s-0.64 3.62 -1.9 4.94 c-1.42 1.52 -3.28 2.26 -5.54 2.26 c-2.24 0 -4.12 -0.76 -5.56 -2.28 c-1.24 -1.34 -1.88 -2.98 -1.88 -4.92 c0 -1.96 0.64 -3.6 1.88 -4.92 c1.44 -1.52 3.32 -2.3 5.56 -2.3 c2.28 0 4.14 0.78 5.56 2.28 z M61.55800000000001 16.7 c0.98 -0.92 1.46 -2.16 1.46 -3.72 s-0.48 -2.8 -1.46 -3.72 c-0.94 -0.94 -2.2 -1.4 -3.7 -1.4 c-1.62 0 -2.9 0.54 -3.88 1.62 c-0.86 0.94 -1.3 2.1 -1.3 3.5 c0 1.5 0.5 2.74 1.48 3.7 c0.94 0.94 2.2 1.42 3.7 1.42 c1.52 0 2.78 -0.46 3.7 -1.4 z M70.364 6 l2.58 0 l4.92 9.16 l-1.28 2.38 z M88.664 6 l-7.54 14 l-2.56 0 l7.54 -14 l2.56 0 z M93.85000000000001 20 l2.76 -5.24 l9.7 0.02 l-3.58 -6.78 l-2.64 4.96 l-2.52 0 l3.7 -6.96 l2.9 0 l7.42 14 l-2.54 0 l-1.62 -3.14 l-9.42 0 l-1.62 3.14 l-2.54 0 z M116.77600000000001 6 l15.7 0 l0 2.1 l-15.7 0 l0 -2.1 z M123.45600000000002 10 l2.32 0 l0 10 l-2.32 0 l0 -10 z M137.662 16.08 l0 -10.08 l12.24 0 l0 2.08 l-9.92 0 l0 3.6 l9.94 0 l0 2.08 l-9.94 0 l0 2.32 l-2.32 0 z M137.662 20 l0 -2.1 l12.24 0 l0 2.1 l-12.24 0 z M164.294 13.440000000000001 l7.84 0 l0 2.32 l-7.84 0 l0 -2.32 z M186.50600000000003 20 l0 -14 l2.32 0 l0 14 l-2.32 0 z M200.08600000000004 6 l2.32 0 l0 14 l-2.9 0 l-8.86 -9.52 l0 -3.06 l9.44 10.06 l0 -11.48 z M207.59200000000004 16.08 l0 -10.08 l12.24 0 l0 2.08 l-9.92 0 l0 3.6 l9.94 0 l0 2.08 l-9.94 0 l0 2.32 l-2.32 0 z M207.59200000000004 20 l0 -2.1 l12.24 0 l0 2.1 l-12.24 0 z M225.03800000000004 6 l15.7 0 l0 2.1 l-15.7 0 l0 -2.1 z M231.71800000000005 10 l2.32 0 l0 10 l-2.32 0 l0 -10 z M258.48400000000004 6 l2.3 7.76 l-1.08 3.62 l-2.7 -9.06 l-3.5 11.68 l-2.96 0 l-4.62 -14 l2.58 0 l3.54 11.72 l3.5 -11.72 l2.94 0 z M268.08400000000006 6 l-4.58 14 l-2.2 0 l0.68 -2.26 l0 0.02 l3.52 -11.76 l2.58 0 z M286.01000000000005 8.04 c1.24 1.32 1.88 2.96 1.88 4.94 s-0.64 3.62 -1.9 4.94 c-1.42 1.52 -3.28 2.26 -5.54 2.26 c-2.24 0 -4.12 -0.76 -5.56 -2.28 c-1.24 -1.34 -1.88 -2.98 -1.88 -4.92 c0 -1.96 0.64 -3.6 1.88 -4.92 c1.44 -1.52 3.32 -2.3 5.56 -2.3 c2.28 0 4.14 0.78 5.56 2.28 z M284.15000000000003 16.7 c0.98 -0.92 1.46 -2.16 1.46 -3.72 s-0.48 -2.8 -1.46 -3.72 c-0.94 -0.94 -2.2 -1.4 -3.7 -1.4 c-1.62 0 -2.9 0.54 -3.88 1.62 c-0.86 0.94 -1.3 2.1 -1.3 3.5 c0 1.5 0.5 2.74 1.48 3.7 c0.94 0.94 2.2 1.42 3.7 1.42 c1.52 0 2.78 -0.46 3.7 -1.4 z M303.336 14.54 l3.74 5.46 l-2.7 0 l-8.28 -11.92 l-0.82 0 l0 11.92 l-2.32 0 l0 -14 l9.3 0 c1.46 0 2.62 0.4 3.46 1.18 c0.84 0.8 1.26 1.88 1.26 3.22 c0 1.2 -0.34 2.14 -1.04 2.86 c-0.62 0.68 -1.5 1.1 -2.6 1.28 z M298.856 8.08 l3.08 4.5 c1.78 -0.02 2.66 -0.74 2.66 -2.18 c0 -1.54 -0.98 -2.32 -2.9 -2.32 l-2.84 0 z M314.582 15.76 l0 4.24 l-2.32 0 l0 -14 l2.32 0 l0 7.26 l9.82 -7.26 l3.34 0 z M321.562 12.379999999999999 l6.96 7.62 l-3 0 l-5.72 -6.3 z M342.894 13.440000000000001 l7.84 0 l0 2.32 l-7.84 0 l0 -2.32 z M377.846 8.04 c1.24 1.32 1.88 2.96 1.88 4.94 s-0.64 3.62 -1.9 4.94 c-1.42 1.52 -3.28 2.26 -5.54 2.26 c-2.24 0 -4.12 -0.76 -5.56 -2.28 c-1.24 -1.34 -1.88 -2.98 -1.88 -4.92 c0 -1.96 0.64 -3.6 1.88 -4.92 c1.44 -1.52 3.32 -2.3 5.56 -2.3 c2.28 0 4.14 0.78 5.56 2.28 z M375.986 16.7 c0.98 -0.92 1.46 -2.16 1.46 -3.72 s-0.48 -2.8 -1.46 -3.72 c-0.94 -0.94 -2.2 -1.4 -3.7 -1.4 c-1.62 0 -2.9 0.54 -3.88 1.62 c-0.86 0.94 -1.3 2.1 -1.3 3.5 c0 1.5 0.5 2.74 1.48 3.7 c0.94 0.94 2.2 1.42 3.7 1.42 c1.52 0 2.78 -0.46 3.7 -1.4 z M397.93199999999996 6 l2.26 0 l0 9.2 c0 1.4 -0.7 2.56 -2.06 3.42 c-1.4 0.92 -3.28 1.38 -5.62 1.38 s-4.22 -0.46 -5.64 -1.38 c-1.38 -0.88 -2.08 -2.02 -2.08 -3.42 l0 -9.2 l2.26 0 l0 8.66 c0 1.06 0.46 1.86 1.4 2.44 c0.94 0.56 2.28 0.84 4.06 0.84 s3.12 -0.28 4.04 -0.84 c0.92 -0.58 1.38 -1.38 1.38 -2.44 l0 -8.66 z M405.378 6 l15.7 0 l0 2.1 l-15.7 0 l0 -2.1 z M412.058 10 l2.32 0 l0 10 l-2.32 0 l0 -10 z M440.564 13.04 c0.84 0.64 1.26 1.54 1.26 2.7 c0 1.48 -0.66 2.62 -1.98 3.44 s-3.2 1.22 -5.68 1.22 c-3.34 0 -5.98 -0.68 -7.94 -2.06 l0.88 -1.98 c2.2 1.34 4.56 2 7.08 2 c1.64 0 2.92 -0.22 3.82 -0.68 c0.86 -0.44 1.3 -1.04 1.3 -1.8 c0 -0.88 -0.58 -1.48 -1.7 -1.78 c-0.6 -0.14 -2.2 -0.3 -4.8 -0.48 c-2.32 -0.16 -3.94 -0.46 -4.86 -0.92 c-1.1 -0.54 -1.64 -1.46 -1.64 -2.74 c0 -1.32 0.62 -2.36 1.86 -3.12 c1.22 -0.76 2.96 -1.14 5.22 -1.14 c2.8 0 5.18 0.6 7.14 1.8 l-0.98 1.84 c-2.08 -1.06 -4.18 -1.58 -6.34 -1.58 c-1.44 0 -2.54 0.16 -3.3 0.5 s-1.14 0.8 -1.14 1.4 c0 0.62 0.42 1.06 1.22 1.34 c0.58 0.22 1.54 0.36 2.84 0.44 c1.94 0.12 3.22 0.22 3.84 0.3 c1.76 0.24 3.06 0.66 3.9 1.3 z M446.69 9.86 l0 -3.86 l2.34 0 l0 3.86 l-2.34 0 z M460.23 6 l2.32 0 l0 14 l-2.32 0 l0 -6.22 l-11.2 0 l0 6.22 l-2.34 0 l0 -8.32 l13.54 0 l0 -5.68 z M467.736 6.02 l2.32 0 l0 14 l-2.32 0 l0 -14 z M475.24199999999996 20 l0 -14 l2.32 0 l0 14 l-2.32 0 z M488.82199999999995 6 l2.32 0 l0 14 l-2.9 0 l-8.86 -9.52 l0 -3.06 l9.44 10.06 l0 -11.48 z M496.328 16.08 l0 -10.08 l12.24 0 l0 2.08 l-9.92 0 l0 3.6 l9.94 0 l0 2.08 l-9.94 0 l0 2.32 l-2.32 0 z M496.328 20 l0 -2.1 l12.24 0 l0 2.1 l-12.24 0 z"/></g>
			</g>
		</svg>
	