
        <svg xmlns="http://www.w3.org/2000/svg" xmlns:xlink="http://www.w3.org/1999/xlink" version="1.1" width="3162.1621621621625" 
        height="757.840563799884" viewBox="0 0 3162.1621621621625 757.840563799884">
			
			<g transform="scale(8.108108108108109) translate(10, 10)">
				<defs id="SvgjsDefs98849"><linearGradient id="SvgjsLinearGradient98854"><stop id="SvgjsStop98855" stop-color="#616161" offset="0"></stop><stop id="SvgjsStop98856" stop-color="#e6e7e8" offset="0.5"></stop><stop id="SvgjsStop98857" stop-color="#616161" offset="1"></stop></linearGradient><linearGradient id="SvgjsLinearGradient98858"><stop id="SvgjsStop98859" stop-color="#616161" offset="0"></stop><stop id="SvgjsStop98860" stop-color="#e6e7e8" offset="0.5"></stop><stop id="SvgjsStop98861" stop-color="#616161" offset="1"></stop></linearGradient></defs><g id="SvgjsG98850" featureKey="symbolFeature-0" transform="matrix(1,0,0,-1,0,86.77200126647949)" fill="url(#SvgjsLinearGradient98854)"><path xmlns="http://www.w3.org/2000/svg" fill="url(#SvgjsLinearGradient98854)" d="M49.917,86.772L0,38.293l25.528-24.988h48.94L100,38.296L49.917,86.772z M7.323,38.279l42.6,41.373  l42.748-41.376L72.383,18.417H27.614L7.323,38.279z"></path></g><g id="SvgjsG98851" featureKey="nameFeature-0" transform="matrix(1.258203492144407,0,0,1.258203492144407,117.4835930157112,3.9015580942671164)" fill="url(#SvgjsLinearGradient98858)"><path d="M6.64 31.52 l0 8.48 l-4.64 0 l0 -28 l4.64 0 l0 14.52 l19.64 -14.52 l6.68 0 z M20.6 24.759999999999998 l13.92 15.24 l-6 0 l-11.44 -12.6 z M63.114000000000004 36 c4.68 0 8.36 -1.48 11.04 -4.36 l3.76 2.08 c-1.88 2.2 -4.04 3.8 -6.44 4.8 s-5.28 1.48 -8.6 1.48 c-4.68 0 -8.56 -1.16 -11.64 -3.52 c-3.52 -2.68 -5.28 -6.16 -5.28 -10.48 c0 -4.28 1.76 -7.76 5.36 -10.44 c3.12 -2.36 6.96 -3.56 11.56 -3.56 c6.64 0 11.68 2.28 15.24 6.88 l-4 1.4 c-2.68 -2.84 -6.4 -4.28 -11.24 -4.28 c-3.64 0 -6.64 0.96 -8.92 2.84 c-2.32 1.88 -3.44 4.24 -3.44 7.16 c0 2.96 1.12 5.4 3.4 7.24 s5.36 2.76 9.2 2.76 z M89.548 40 l5.52 -10.48 l19.4 0.04 l-7.16 -13.56 l-5.28 9.92 l-5.04 0 l7.4 -13.92 l5.8 0 l14.84 28 l-5.08 0 l-3.24 -6.28 l-18.84 0 l-3.24 6.28 l-5.08 0 z M136.462 40 l0 -28 l4.64 0 l0 23.84 l15.24 0 l0 4.16 l-19.88 0 z M195.896 25.560000000000002 c3.2 1.08 4.8 3.44 4.8 7.08 c0 4.92 -3.52 7.36 -10.6 7.36 l-22.32 0 l0 -4.2 l22.36 0.04 c3.88 0 5.8 -1.28 5.8 -3.84 c0 -2.72 -1.68 -4.12 -5.08 -4.12 l-18.44 0 l0 4.28 l-4.64 0 l0 -20.16 l22.64 0 c2.84 0 5.04 0.68 6.68 2.08 s2.44 3.24 2.44 5.56 c0 2.56 -1.2 4.56 -3.64 5.92 z M193.69599999999997 22.6 c0.88 -0.72 1.32 -1.64 1.32 -2.68 c0 -1.16 -0.4 -2.04 -1.16 -2.72 c-0.8 -0.68 -1.84 -1.04 -3.2 -1.04 l-18.24 0 l0 7.56 l18.08 0 c1.28 0 2.36 -0.36 3.2 -1.12 z"></path></g>
			</g>
		</svg>
	